<svg version="1.1" id="Layer_1" xmlns="http://www.w3.org/2000/svg" xmlns:xlink="http://www.w3.org/1999/xlink" x="0px" y="0px"
	 width="100%" viewBox="0 0 127 101" enable-background="new 0 0 127 101" xml:space="preserve">
<path fill="#000000" opacity="1.000000" stroke="none" 
	d="
M77.000000,102.000000 
	C51.333332,102.000000 26.166666,102.000000 1.000000,102.000000 
	C1.000000,68.333336 1.000000,34.666668 1.000000,1.000000 
	C43.333332,1.000000 85.666664,1.000000 128.000000,1.000000 
	C128.000000,34.666668 128.000000,68.333336 128.000000,102.000000 
	C111.166664,102.000000 94.333336,102.000000 77.000000,102.000000 
M34.010735,7.954391 
	C34.010735,7.954391 34.110935,7.939101 33.743080,7.223482 
	C32.774639,7.146808 31.797758,7.126441 30.839376,6.982705 
	C28.164282,6.581501 25.496849,6.129197 22.826393,5.697066 
	C22.844107,8.449526 22.861822,11.201986 22.149662,14.304848 
	C20.518629,14.672449 18.887594,15.040050 17.508549,15.350858 
	C16.988127,18.047338 16.493759,20.608826 15.285715,23.018446 
	C14.192053,23.399183 13.098390,23.779921 11.195151,24.284319 
	C10.795402,25.119608 10.055316,25.951946 10.048045,26.790638 
	C9.966810,36.160736 9.962643,45.532154 10.051204,54.902145 
	C10.060923,55.930531 10.777855,56.952232 11.014567,58.906284 
	C11.010849,69.369484 11.152087,79.835808 10.926759,90.294243 
	C10.845133,94.082855 12.155196,95.372589 15.817230,95.039238 
	C21.534103,94.518845 27.271423,94.223053 33.790668,93.988747 
	C34.860180,93.935318 35.929691,93.881889 37.800694,93.991737 
	C41.200001,94.274452 44.599308,94.557167 48.469166,94.995422 
	C48.469166,94.995422 48.948040,95.123055 49.310299,95.818085 
	C54.207363,96.155571 59.104424,96.493057 64.897293,96.983749 
	C72.931343,95.935921 80.965401,94.888100 89.661682,93.986137 
	C90.108055,93.935577 90.554428,93.885017 91.847847,93.986153 
	C93.564659,93.935730 95.281471,93.885307 97.910294,93.986023 
	C101.904808,94.311890 105.897675,94.807556 109.894974,94.846298 
	C110.916542,94.856201 112.754189,93.485855 112.824074,92.635216 
	C113.001625,90.474182 112.390549,88.248344 112.673737,85.799614 
	C112.811798,84.212456 112.949860,82.625290 113.746033,80.774445 
	C113.776627,74.508987 113.807220,68.243530 113.993271,61.056664 
	C113.993843,49.176308 114.046059,37.295357 113.908760,25.416594 
	C113.896133,24.323862 112.674309,23.245111 111.138725,22.026344 
	C110.759163,23.611214 110.056656,25.194550 110.049118,26.781185 
	C109.955551,46.490101 109.963051,66.199493 109.251251,86.210678 
	C107.833397,86.529213 106.415543,86.847748 104.256714,87.014587 
	C103.236534,86.638351 102.216354,86.262108 101.196175,85.885872 
	C105.947472,84.893799 108.248833,82.731514 108.042694,77.953331 
	C107.799210,72.309746 107.888855,66.651779 107.998009,60.188599 
	C108.040077,56.139996 108.082146,52.091393 108.794373,47.711300 
	C108.564262,46.126266 108.334160,44.541237 107.999283,42.046631 
	C108.029343,38.375862 108.059395,34.705097 108.767349,30.715420 
	C108.539421,29.130548 108.311485,27.545679 107.988632,25.223448 
	C107.765121,23.256824 107.292152,21.280352 107.369339,19.325603 
	C107.536705,15.086801 107.651749,15.091343 104.164574,15.386352 
	C104.164574,27.637482 104.164574,39.818390 103.997650,52.840790 
	C103.721352,57.553989 103.445053,62.267193 103.290604,67.804420 
	C103.526550,69.527687 103.944138,71.248650 103.966003,72.974632 
	C104.047066,79.371452 100.538872,81.489853 94.771606,78.738647 
	C101.039970,76.728577 102.088379,77.425247 101.816071,67.659851 
	C101.873001,49.425652 101.939926,31.191452 101.947639,12.957232 
	C101.947922,12.279749 101.371117,11.602024 101.002701,10.094203 
	C100.711487,9.414019 100.546242,8.239927 100.109932,8.128643 
	C94.639999,6.733528 89.253654,7.749815 84.123329,9.558477 
	C82.458626,10.145361 80.534348,12.292340 80.228210,13.995278 
	C79.392365,18.644802 78.380157,23.629105 79.260590,28.123743 
	C80.260063,33.226059 78.112206,33.242683 74.595314,33.008102 
	C73.435234,32.930725 72.267685,32.965252 71.004829,32.024826 
	C71.004829,26.420916 71.004829,20.817003 71.004829,13.687739 
	C68.305397,15.573211 66.587570,16.773056 64.439232,18.012308 
	C64.439232,18.012308 64.034126,18.163265 63.174831,18.359440 
	C63.171024,28.895803 63.167217,39.432167 63.013287,50.899166 
	C62.993828,62.563568 62.974369,74.227966 62.343105,85.991486 
	C61.930527,85.975967 61.517952,85.960457 61.031952,85.534935 
	C61.031952,85.534935 61.042137,85.118523 61.571011,84.929764 
	C61.394566,84.580368 61.218124,84.230980 60.993164,83.426918 
	C60.993164,83.426918 60.838173,82.996727 61.001854,82.171219 
	C61.277340,79.111862 61.552826,76.052498 61.981037,72.067749 
	C61.985989,55.514050 62.015255,38.960266 61.954891,22.406803 
	C61.949398,20.900263 61.368462,19.395821 61.032619,17.967861 
	C61.032619,17.967861 61.110107,17.945835 60.863571,17.350727 
	C60.253639,17.288626 59.643711,17.226524 58.287952,17.006237 
	C54.802330,15.338515 51.316708,13.670793 47.752167,11.270551 
	C46.145504,10.905487 44.538837,10.540422 42.553688,10.015831 
	C42.553688,10.015831 42.144291,9.982801 41.776993,9.275407 
	C39.186474,8.801327 36.595959,8.327248 34.010735,7.954391 
z"/>
<path fill="#DEFAD4" opacity="1.000000" stroke="none" 
	d="
M47.831085,12.003071 
	C51.316708,13.670793 54.802330,15.338515 58.857224,17.301723 
	C59.987701,17.713417 60.548904,17.829626 61.110107,17.945835 
	C61.110107,17.945835 61.032619,17.967861 61.016262,18.404694 
	C60.996086,36.894341 60.992268,54.947159 60.713287,73.288773 
	C60.571476,76.717285 60.704823,79.857010 60.838173,82.996727 
	C60.838173,82.996727 60.993164,83.426918 61.002655,83.963608 
	C61.022148,84.706375 61.032143,84.912453 61.042137,85.118523 
	C61.042137,85.118523 61.031952,85.534935 60.815784,85.914429 
	C60.400852,86.860138 60.202091,87.426369 59.708946,87.867950 
	C58.610157,87.499229 57.805748,87.255135 56.778625,86.731476 
	C54.702980,85.968269 52.850048,85.484627 50.654198,84.935898 
	C45.633041,79.398628 39.466011,76.825363 32.513134,75.942162 
	C32.093037,75.888794 31.480112,77.353394 30.524475,78.059875 
	C28.062145,77.956078 26.032253,77.904091 24.006191,77.392807 
	C24.002462,68.624123 23.994904,60.314739 23.973866,51.721664 
	C23.690866,50.963326 23.421345,50.488678 23.057022,49.779060 
	C22.688528,49.384388 22.414831,49.224693 21.858849,49.043148 
	C21.388395,49.006489 21.200224,48.991688 21.010365,48.741524 
	C21.008675,48.506165 21.005026,48.035442 21.288645,48.010689 
	C21.761576,47.972351 21.950888,47.958771 22.514023,47.734077 
	C22.976042,42.343327 23.064238,37.163696 23.402058,31.668617 
	C23.778675,28.237196 23.905664,25.121225 24.388451,21.931881 
	C28.077330,17.828640 27.928692,15.905297 24.043564,12.584223 
	C24.687004,10.456193 25.345945,8.736298 26.122021,7.228230 
	C26.444286,7.703851 26.706100,7.886355 27.466526,7.988154 
	C29.975950,7.972192 32.043442,7.955646 34.110935,7.939101 
	C34.110935,7.939101 34.010735,7.954391 34.230061,8.210893 
	C37.014355,8.972530 39.579323,9.477666 42.144291,9.982801 
	C42.144291,9.982801 42.553688,10.015831 42.800957,10.404451 
	C44.642513,11.196405 46.236801,11.599738 47.831085,12.003071 
z"/>
<path fill="#DEFAD4" opacity="1.000000" stroke="none" 
	d="
M62.954910,85.892372 
	C62.974369,74.227966 62.993828,62.563568 63.341320,50.109402 
	C63.790943,38.934181 63.912537,28.548723 64.034126,18.163265 
	C64.034126,18.163265 64.439232,18.012308 65.047607,17.993179 
	C66.915886,17.812628 68.175797,17.651205 70.003311,17.417055 
	C70.003311,19.643744 69.874825,21.582140 70.032341,23.497013 
	C70.292168,26.655542 70.736809,29.798872 71.103561,32.948608 
	C72.267685,32.965252 73.435234,32.930725 74.595314,33.008102 
	C78.112206,33.242683 80.260063,33.226059 79.260590,28.123743 
	C78.380157,23.629105 79.392365,18.644802 80.228210,13.995278 
	C80.534348,12.292340 82.458626,10.145361 84.123329,9.558477 
	C89.253654,7.749815 94.639999,6.733528 100.109932,8.128643 
	C100.546242,8.239927 100.711487,9.414019 100.862846,10.881564 
	C100.495514,13.428581 100.028526,15.195762 100.083527,16.946543 
	C100.283119,23.299976 100.657677,29.647911 100.701431,36.278828 
	C100.613091,39.041115 100.789551,41.522495 100.967644,44.335579 
	C100.969604,45.109558 100.969925,45.551838 100.761459,46.149166 
	C100.691376,46.870918 100.830078,47.437614 100.972519,48.378456 
	C100.969894,49.500858 100.963539,50.249115 100.714828,51.220375 
	C100.637672,52.630402 100.802879,53.817436 100.971054,55.468452 
	C100.999245,59.986713 101.024452,64.040985 101.049667,68.095253 
	C102.088379,77.425247 101.039970,76.728577 94.049301,78.876511 
	C90.712593,78.716278 87.718506,77.455048 85.557457,78.306961 
	C79.865448,80.550842 74.528435,83.699654 69.086494,86.557472 
	C68.867241,86.672607 69.018974,87.494217 68.622894,87.989845 
	C67.497726,87.994957 66.747528,87.996880 65.796524,87.751709 
	C64.715454,86.967201 63.835182,86.429787 62.954910,85.892372 
z"/>
<path fill="#E1F6D8" opacity="1.000000" stroke="none" 
	d="
M68.997864,87.986664 
	C69.018974,87.494217 68.867241,86.672607 69.086494,86.557472 
	C74.528435,83.699654 79.865448,80.550842 85.557457,78.306961 
	C87.718506,77.455048 90.712593,78.716278 93.713287,79.024429 
	C100.538872,81.489853 104.047066,79.371452 103.966003,72.974632 
	C103.944138,71.248650 103.526550,69.527687 103.510941,67.213463 
	C105.098877,64.748352 106.466484,62.874199 107.834084,61.000042 
	C107.888855,66.651779 107.799210,72.309746 108.042694,77.953331 
	C108.248833,82.731514 105.947472,84.893799 101.196175,85.885872 
	C102.216354,86.262108 103.236534,86.638351 104.540428,87.430679 
	C102.737679,88.336449 100.660011,89.181831 98.562721,89.233696 
	C95.290512,89.314629 92.004990,88.857491 88.343727,88.601692 
	C88.643608,90.997429 88.821526,92.418846 88.999451,93.840271 
	C80.965401,94.888100 72.931343,95.935921 64.449066,96.555069 
	C64.000992,95.422234 64.001144,94.718086 64.299782,93.878525 
	C65.729607,93.176567 66.860939,92.610016 68.360413,92.031876 
	C69.697968,91.791740 70.667389,91.563187 71.636810,91.334633 
	C71.617332,91.069191 71.597862,90.803757 71.578384,90.538315 
	C70.727295,90.405518 69.876205,90.272713 69.019302,89.781143 
	C69.008286,88.943810 69.003075,88.465240 68.997864,87.986664 
M76.342697,88.789848 
	C75.801727,88.989029 75.260750,89.188217 74.719780,89.387398 
	C74.838860,89.689346 74.957932,89.991295 75.077011,90.293236 
	C76.435432,89.707489 77.793861,89.121742 79.152290,88.535995 
	C79.029007,88.428307 78.905731,88.320618 78.614616,88.066330 
	C78.129883,88.197021 77.525719,88.359909 76.342697,88.789848 
M83.187546,83.571877 
	C83.192070,83.201836 83.196594,82.831787 83.201118,82.461746 
	C83.047607,82.459969 82.760681,82.447693 82.759880,82.457947 
	C82.730888,82.826126 82.728630,83.196396 83.187546,83.571877 
z"/>
<path fill="#E0F8D6" opacity="1.000000" stroke="none" 
	d="
M12.004726,24.160658 
	C13.098390,23.779921 14.192053,23.399183 15.642656,23.518944 
	C15.666770,29.345911 15.333944,34.672379 15.000707,40.467621 
	C15.000296,54.127350 15.000296,67.318306 15.000296,80.509262 
	C15.638465,80.564919 16.276634,80.620575 16.914803,80.676231 
	C17.277807,79.117310 17.640810,77.558388 18.261944,75.899323 
	C19.003130,75.534836 19.486185,75.270508 19.977047,75.371376 
	C20.323889,76.830162 20.662928,77.923744 21.006474,79.337975 
	C21.338570,80.285469 21.666159,80.912323 21.993748,81.539177 
	C22.329193,81.079765 22.664639,80.620361 23.372719,80.085098 
	C24.500881,80.059212 25.256407,80.109184 26.152191,80.346542 
	C26.525803,80.755531 26.800646,80.895927 27.447296,80.853973 
	C28.837282,80.464607 29.896944,80.176384 30.930534,80.247162 
	C28.641224,82.360085 26.377989,84.114021 23.890511,86.041733 
	C25.944958,87.217804 28.842016,88.668411 31.473246,90.500755 
	C32.336739,91.102074 32.510765,92.693466 33.000080,93.832092 
	C27.271423,94.223053 21.534103,94.518845 15.817230,95.039238 
	C12.155196,95.372589 10.845133,94.082855 10.926759,90.294243 
	C11.152087,79.835808 11.010849,69.369484 11.339897,58.114014 
	C11.778393,46.268047 11.891560,35.214352 12.004726,24.160658 
M16.010250,84.826408 
	C16.989193,84.925613 17.968134,85.024826 18.976431,84.343407 
	C18.984314,83.562271 18.992195,82.781136 19.249931,81.896103 
	C19.166595,81.930733 19.083260,81.965370 18.282934,82.017006 
	C17.537348,82.718842 16.791763,83.420670 16.010250,84.826408 
z"/>
<path fill="#DFF9D9" opacity="1.000000" stroke="none" 
	d="
M33.395374,93.910423 
	C32.510765,92.693466 32.336739,91.102074 31.473246,90.500755 
	C28.842016,88.668411 25.944958,87.217804 23.890511,86.041733 
	C26.377989,84.114021 28.641224,82.360085 30.950779,79.951294 
	C30.983702,78.901520 30.970304,78.506599 30.956907,78.111679 
	C31.480112,77.353394 32.093037,75.888794 32.513134,75.942162 
	C39.466011,76.825363 45.633041,79.398628 50.798786,85.228294 
	C51.857937,86.722404 52.429577,87.859039 52.750916,88.994705 
	C52.333752,88.994843 52.166889,88.995964 51.786163,88.751663 
	C50.904411,89.045486 49.839844,89.471939 49.647995,90.146568 
	C49.194103,91.742668 49.154903,93.456703 48.948036,95.123055 
	C48.948040,95.123055 48.469166,94.995422 48.225227,94.551613 
	C46.957100,92.062195 45.932907,90.016586 44.789162,87.731972 
	C44.132607,87.366631 43.595608,87.240295 43.058609,87.113953 
	C43.037567,87.441803 43.016525,87.769661 42.984398,88.461617 
	C40.981945,90.493301 38.990578,92.160881 36.999207,93.828461 
	C35.929691,93.881889 34.860180,93.935318 33.395374,93.910423 
z"/>
<path fill="#E0F6D8" opacity="1.000000" stroke="none" 
	d="
M15.001118,39.998848 
	C15.333944,34.672379 15.666770,29.345911 15.999494,23.594879 
	C16.493759,20.608826 16.988127,18.047338 17.508549,15.350858 
	C18.887594,15.040050 20.518629,14.672449 22.755665,14.029985 
	C23.594133,13.500868 23.826599,13.246613 24.059065,12.992357 
	C27.928692,15.905297 28.077330,17.828640 24.289227,21.729029 
	C23.665850,21.339630 23.440794,21.145416 23.086004,20.613789 
	C22.951689,19.033222 22.890409,17.855772 22.829132,16.678322 
	C22.598341,16.702492 22.367550,16.726662 22.136757,16.750832 
	C22.033384,18.836321 21.930010,20.921812 21.451008,23.126625 
	C21.051929,31.509111 21.028477,39.772278 21.005026,48.035442 
	C21.005026,48.035442 21.008675,48.506165 21.005898,49.160492 
	C20.987251,51.207767 20.971384,52.600712 20.749954,54.112305 
	C20.289928,54.435444 20.110643,54.692413 20.004818,55.469666 
	C19.992815,61.625336 19.982527,67.313187 19.644413,73.000641 
	C18.878563,73.000168 18.440540,73.000084 17.720610,72.703285 
	C17.292570,63.229305 17.240061,54.048710 16.913826,44.877850 
	C16.855240,43.230919 15.667513,41.624157 15.001118,39.998848 
z"/>
<path fill="#E5F5D8" opacity="1.000000" stroke="none" 
	d="
M108.089455,31.034330 
	C108.059395,34.705097 108.029343,38.375862 107.766220,42.751366 
	C107.357063,44.969589 107.180977,46.483078 106.752380,48.218483 
	C105.721443,49.626694 104.943008,50.812996 104.164574,51.999294 
	C104.164574,39.818390 104.164574,27.637482 104.164574,15.386352 
	C107.651749,15.091343 107.536705,15.086801 107.369339,19.325603 
	C107.292152,21.280352 107.765121,23.256824 107.762032,25.828266 
	C107.720108,27.966833 107.904778,29.500582 108.089455,31.034330 
z"/>
<path fill="#DEFAD3" opacity="1.000000" stroke="none" 
	d="
M89.330566,93.913208 
	C88.821526,92.418846 88.643608,90.997429 88.343727,88.601692 
	C92.004990,88.857491 95.290512,89.314629 98.562721,89.233696 
	C100.660011,89.181831 102.737679,88.336449 104.910919,87.506531 
	C106.415543,86.847748 107.833397,86.529213 109.746178,86.250534 
	C110.859131,86.209747 111.477165,86.129097 112.095192,86.048454 
	C112.390549,88.248344 113.001625,90.474182 112.824074,92.635216 
	C112.754189,93.485855 110.916542,94.856201 109.894974,94.846298 
	C105.897675,94.807556 101.904808,94.311890 97.435165,93.529877 
	C94.276672,89.893646 92.508141,90.119408 91.000801,93.834457 
	C90.554428,93.885017 90.108055,93.935577 89.330566,93.913208 
z"/>
<path fill="#FEE5DD" opacity="1.000000" stroke="none" 
	d="
M112.384460,85.924034 
	C111.477165,86.129097 110.859131,86.209747 110.092834,86.099579 
	C109.963051,66.199493 109.955551,46.490101 110.049118,26.781185 
	C110.056656,25.194550 110.759163,23.611214 111.697205,22.327576 
	C112.495674,23.096045 112.735657,23.563280 112.585587,24.123135 
	C111.796890,25.714573 111.064751,27.210751 111.052834,28.712641 
	C110.964775,39.813328 111.020210,50.915157 111.025665,62.452080 
	C111.027168,64.919708 111.033508,66.951874 111.029846,69.322502 
	C111.026314,70.112373 111.032799,70.563782 111.029373,71.449188 
	C111.708939,74.934830 112.398430,77.986481 113.087921,81.038132 
	C112.949860,82.625290 112.811798,84.212456 112.384460,85.924034 
z"/>
<path fill="#E2F2DA" opacity="1.000000" stroke="none" 
	d="
M49.129166,95.470566 
	C49.154903,93.456703 49.194103,91.742668 49.647995,90.146568 
	C49.839844,89.471939 50.904411,89.045486 51.909248,89.038834 
	C52.634933,90.407829 53.023666,91.244209 53.697601,92.694237 
	C53.838127,91.384834 53.913383,90.683594 54.239609,89.984406 
	C54.657856,89.989639 54.825142,89.992821 54.996189,89.998001 
	C54.999947,90.000000 55.003902,90.007278 55.178123,90.244308 
	C55.902729,90.650772 56.453117,90.820198 57.005920,91.339088 
	C56.983593,94.805588 58.762001,94.524803 60.942879,93.925339 
	C61.883183,93.666862 62.977139,93.967361 64.001289,94.013931 
	C64.001144,94.718086 64.000992,95.422234 64.001160,96.478470 
	C59.104424,96.493057 54.207363,96.155571 49.129166,95.470566 
z"/>
<path fill="#DDF8DB" opacity="1.000000" stroke="none" 
	d="
M104.081116,52.420044 
	C104.943008,50.812996 105.721443,49.626694 107.032181,48.230103 
	C107.751068,48.027473 107.937645,48.035133 108.124214,48.042789 
	C108.082146,52.091393 108.040077,56.139996 107.916046,60.594322 
	C106.466484,62.874199 105.098877,64.748352 103.450012,66.801453 
	C103.445053,62.267193 103.721352,57.553989 104.081116,52.420044 
z"/>
<path fill="#DFF1DB" opacity="1.000000" stroke="none" 
	d="
M113.416977,80.906288 
	C112.398430,77.986481 111.708939,74.934830 111.315163,71.400490 
	C111.915070,70.597046 112.219276,70.276291 112.523476,69.955536 
	C112.028938,69.631706 111.534393,69.307877 111.039856,68.984039 
	C111.033508,66.951874 111.027168,64.919708 111.360306,62.446140 
	C112.147263,61.994198 112.594742,61.983654 113.241112,61.974667 
	C113.440010,61.976223 113.837814,61.978077 113.837814,61.978077 
	C113.807220,68.243530 113.776627,74.508987 113.416977,80.906288 
z"/>
<path fill="#E9EBD4" opacity="1.000000" stroke="none" 
	d="
M11.599939,24.222488 
	C11.891560,35.214352 11.778393,46.268047 11.416000,57.649384 
	C10.777855,56.952232 10.060923,55.930531 10.051204,54.902145 
	C9.962643,45.532154 9.966810,36.160736 10.048045,26.790638 
	C10.055316,25.951946 10.795402,25.119608 11.599939,24.222488 
z"/>
<path fill="#FFE2E2" opacity="1.000000" stroke="none" 
	d="
M100.957184,50.997375 
	C100.963539,50.249115 100.969894,49.500858 100.983971,48.043510 
	C100.984543,46.887653 100.977394,46.440884 100.970245,45.994114 
	C100.969925,45.551838 100.969604,45.109558 100.979263,43.891224 
	C100.981583,40.742752 100.973900,38.370335 100.966232,35.997921 
	C100.657677,29.647911 100.283119,23.299976 100.083527,16.946543 
	C100.028526,15.195762 100.495514,13.428581 100.893120,11.296669 
	C101.371117,11.602024 101.947922,12.279749 101.947639,12.957232 
	C101.939926,31.191452 101.873001,49.425652 101.432861,67.877548 
	C101.024452,64.040985 100.999245,59.986713 100.982407,55.067772 
	C100.979576,53.134525 100.968384,52.065948 100.957184,50.997375 
z"/>
<path fill="#FFE8EB" opacity="1.000000" stroke="none" 
	d="
M60.988453,72.999977 
	C60.992268,54.947159 60.996086,36.894341 61.027325,18.365963 
	C61.368462,19.395821 61.949398,20.900263 61.954891,22.406803 
	C62.015255,38.960266 61.985989,55.514050 61.694702,72.531296 
	C61.408363,72.994835 60.988453,72.999977 60.988453,72.999977 
z"/>
<path fill="#E2F9D7" opacity="1.000000" stroke="none" 
	d="
M37.399948,93.910103 
	C38.990578,92.160881 40.981945,90.493301 43.302589,88.424522 
	C44.057484,88.005875 44.483097,87.988426 44.908714,87.970978 
	C45.932907,90.016586 46.957100,92.062195 47.989952,94.473846 
	C44.599308,94.557167 41.200001,94.274452 37.399948,93.910103 
z"/>
<path fill="#FED7D9" opacity="1.000000" stroke="none" 
	d="
M113.915543,61.517372 
	C113.837814,61.978077 113.440010,61.976223 113.231644,61.509079 
	C113.007393,48.704792 112.991524,36.367657 112.975647,24.030518 
	C112.735657,23.563280 112.495674,23.096045 112.134827,22.394341 
	C112.674309,23.245111 113.896133,24.323862 113.908760,25.416594 
	C114.046059,37.295357 113.993843,49.176308 113.915543,61.517372 
z"/>
<path fill="#F5F5E4" opacity="1.000000" stroke="none" 
	d="
M63.604477,18.261353 
	C63.912537,28.548723 63.790943,38.934181 63.416382,49.644085 
	C63.167217,39.432167 63.171024,28.895803 63.604477,18.261353 
z"/>
<path fill="#FBEAE2" opacity="1.000000" stroke="none" 
	d="
M24.043564,12.584223 
	C23.826599,13.246613 23.594133,13.500868 23.120602,13.854785 
	C22.861822,11.201986 22.844107,8.449526 22.826393,5.697066 
	C25.496849,6.129197 28.164282,6.581501 30.839376,6.982705 
	C31.797758,7.126441 32.774639,7.146808 33.927010,7.581291 
	C32.043442,7.955646 29.975950,7.972192 27.348736,7.776338 
	C26.585119,7.299113 26.323744,7.116601 26.004887,7.016402 
	C25.345945,8.736298 24.687004,10.456193 24.043564,12.584223 
z"/>
<path fill="#FAEAE1" opacity="1.000000" stroke="none" 
	d="
M71.054199,32.486717 
	C70.736809,29.798872 70.292168,26.655542 70.032341,23.497013 
	C69.874825,21.582140 70.003311,19.643744 70.003311,17.417055 
	C68.175797,17.651205 66.915886,17.812628 65.262863,17.973476 
	C66.587570,16.773056 68.305397,15.573211 71.004829,13.687739 
	C71.004829,20.817003 71.004829,26.420916 71.054199,32.486717 
z"/>
<path fill="#EBF3D7" opacity="1.000000" stroke="none" 
	d="
M62.649010,85.941925 
	C63.835182,86.429787 64.715454,86.967201 65.608612,87.995255 
	C65.045227,88.672005 64.468956,88.858116 63.540073,89.025223 
	C62.819855,89.656792 62.452251,90.307365 61.796471,90.847687 
	C60.685196,90.170746 59.862099,89.604057 59.254627,88.919807 
	C59.736332,88.590561 59.914024,88.320679 60.003330,87.992592 
	C60.202091,87.426369 60.400852,86.860138 60.852493,86.119431 
	C61.517952,85.960457 61.930527,85.975967 62.649010,85.941925 
z"/>
<path fill="#E1F6D8" opacity="1.000000" stroke="none" 
	d="
M91.424324,93.910309 
	C92.508141,90.119408 94.276672,89.893646 96.979156,93.454300 
	C95.281471,93.885307 93.564659,93.935730 91.424324,93.910309 
z"/>
<path fill="#EBF3D7" opacity="1.000000" stroke="none" 
	d="
M60.713287,73.288773 
	C60.988453,72.999977 61.408363,72.994835 61.618336,72.993988 
	C61.552826,76.052498 61.277340,79.111862 60.920013,82.583969 
	C60.704823,79.857010 60.571476,76.717285 60.713287,73.288773 
z"/>
<path fill="#FBEAE2" opacity="1.000000" stroke="none" 
	d="
M41.960640,9.629105 
	C39.579323,9.477666 37.014355,8.972530 34.227413,8.160281 
	C36.595959,8.327248 39.186474,8.801327 41.960640,9.629105 
z"/>
<path fill="#DDEBD7" opacity="1.000000" stroke="none" 
	d="
M108.428406,30.874874 
	C107.904778,29.500582 107.720108,27.966833 107.809494,26.196945 
	C108.311485,27.545679 108.539421,29.130548 108.428406,30.874874 
z"/>
<path fill="#DDEBD7" opacity="1.000000" stroke="none" 
	d="
M108.459290,47.877045 
	C107.937645,48.035133 107.751068,48.027473 107.284683,48.008194 
	C107.180977,46.483078 107.357063,44.969589 107.818604,43.206154 
	C108.334160,44.541237 108.564262,46.126266 108.459290,47.877045 
z"/>
<path fill="#FBEAE2" opacity="1.000000" stroke="none" 
	d="
M47.791626,11.636810 
	C46.236801,11.599738 44.642513,11.196405 42.990204,10.484216 
	C44.538837,10.540422 46.145504,10.905487 47.791626,11.636810 
z"/>
<path fill="#FFE8EB" opacity="1.000000" stroke="none" 
	d="
M60.986839,17.648281 
	C60.548904,17.829626 59.987701,17.713417 59.230141,17.380816 
	C59.643711,17.226524 60.253639,17.288626 60.986839,17.648281 
z"/>
<path fill="#EBF3D7" opacity="1.000000" stroke="none" 
	d="
M61.306572,85.024139 
	C61.032143,84.912453 61.022148,84.706375 61.026917,84.190941 
	C61.218124,84.230980 61.394566,84.580368 61.306572,85.024139 
z"/>
<path fill="#FFE9E6" opacity="1.000000" stroke="none" 
	d="
M19.972239,73.001030 
	C19.982527,67.313187 19.992815,61.625336 20.214344,55.354591 
	C20.690998,54.572819 20.867641,54.313473 20.955517,53.993660 
	C20.971384,52.600712 20.987251,51.207767 21.007587,49.395851 
	C21.200224,48.991688 21.388395,49.006489 21.799091,49.503860 
	C21.956692,59.654987 21.891766,69.323555 21.620544,78.995880 
	C21.414248,78.999649 21.001966,79.017334 21.001966,79.017334 
	C20.662928,77.923744 20.323889,76.830162 19.986809,75.037064 
	C19.983257,73.892044 19.977747,73.446533 19.972239,73.001030 
z"/>
<path fill="#E7FEE3" opacity="1.000000" stroke="none" 
	d="
M21.288645,48.010689 
	C21.028477,39.772278 21.051929,31.509111 21.532089,23.588619 
	C22.039267,31.935925 22.089733,39.940559 22.140200,47.945194 
	C21.950888,47.958771 21.761576,47.972351 21.288645,48.010689 
z"/>
<path fill="#000000" opacity="1.000000" stroke="none" 
	d="
M21.826839,78.992119 
	C21.891766,69.323555 21.956692,59.654987 22.081375,49.525711 
	C22.414831,49.224693 22.688528,49.384388 22.987907,50.108238 
	C23.064384,51.114967 23.115177,51.557541 23.088917,52.463139 
	C23.007433,59.653896 22.940708,66.382591 23.044481,73.108650 
	C23.068945,74.694344 23.667761,76.271187 24.002359,77.852097 
	C26.032253,77.904091 28.062145,77.956078 30.524471,78.059875 
	C30.970304,78.506599 30.983702,78.901520 30.976852,79.592300 
	C29.896944,80.176384 28.837282,80.464607 27.361698,80.596146 
	C26.634497,80.346031 26.323215,80.252594 26.011934,80.159157 
	C25.256407,80.109184 24.500881,80.059212 23.100370,79.978806 
	C22.245871,79.629623 22.036354,79.310867 21.826839,78.992119 
z"/>
<path fill="#000000" opacity="1.000000" stroke="none" 
	d="
M22.514023,47.734077 
	C22.089733,39.940559 22.039267,31.935925 21.907719,23.469296 
	C21.930010,20.921812 22.033384,18.836321 22.136757,16.750832 
	C22.367550,16.726662 22.598341,16.702492 22.829132,16.678322 
	C22.890409,17.855772 22.951689,19.033222 23.008581,21.064922 
	C23.053610,25.274136 23.103022,28.629101 23.152431,31.984066 
	C23.064238,37.163696 22.976042,42.343327 22.514023,47.734077 
z"/>
<path fill="#F4F6E2" opacity="1.000000" stroke="none" 
	d="
M24.006191,77.392807 
	C23.667761,76.271187 23.068945,74.694344 23.044481,73.108650 
	C22.940708,66.382591 23.007433,59.653896 23.294264,52.464031 
	C23.576664,52.001900 23.987345,52.005356 23.987345,52.005356 
	C23.994904,60.314739 24.002462,68.624123 24.006191,77.392807 
z"/>
<path fill="#DCE6CC" opacity="1.000000" stroke="none" 
	d="
M57.003502,90.989624 
	C56.453117,90.820198 55.902729,90.650772 55.306824,90.189934 
	C55.171680,89.931023 55.082058,89.963516 54.992432,89.996010 
	C54.825142,89.992821 54.657856,89.989639 54.126160,89.774017 
	C53.562263,89.300331 53.308754,89.111702 53.001213,88.995674 
	C52.429577,87.859039 51.857937,86.722404 51.141708,85.293381 
	C52.850048,85.484627 54.702980,85.968269 56.803696,87.025726 
	C57.367828,88.068344 57.684177,88.537140 57.889366,89.260849 
	C57.519974,90.007042 57.261738,90.498329 57.003502,90.989624 
z"/>
<path fill="#EBFEE4" opacity="1.000000" stroke="none" 
	d="
M23.402060,31.668617 
	C23.103022,28.629101 23.053610,25.274136 23.081619,21.468037 
	C23.440794,21.145416 23.665850,21.339630 23.933432,21.802399 
	C23.905664,25.121225 23.778675,28.237196 23.402060,31.668617 
z"/>
<path fill="#CEDAC3" opacity="1.000000" stroke="none" 
	d="
M58.000526,89.005943 
	C57.684177,88.537140 57.367828,88.068344 57.026413,87.305290 
	C57.805748,87.255135 58.610157,87.499229 59.708946,87.867950 
	C59.914024,88.320679 59.736332,88.590561 58.994892,88.906799 
	C58.346535,89.009552 58.173531,89.007751 58.000526,89.005943 
z"/>
<path fill="#EBFEE4" opacity="1.000000" stroke="none" 
	d="
M23.973866,51.721664 
	C23.987345,52.005356 23.576664,52.001900 23.371319,52.001007 
	C23.115177,51.557541 23.064384,51.114967 23.082706,50.343216 
	C23.421345,50.488678 23.690866,50.963326 23.973866,51.721664 
z"/>
<path fill="#E0F6D8" opacity="1.000000" stroke="none" 
	d="
M26.122021,7.228230 
	C26.323744,7.116601 26.585119,7.299113 26.906805,7.775755 
	C26.706100,7.886355 26.444286,7.703851 26.122021,7.228230 
z"/>
<path fill="#E3E5CE" opacity="1.000000" stroke="none" 
	d="
M57.889366,89.260849 
	C58.173531,89.007751 58.346535,89.009552 58.779270,89.024361 
	C59.862099,89.604057 60.685196,90.170746 62.145584,90.861427 
	C63.152817,90.338356 63.522751,89.691292 63.892685,89.044228 
	C64.468956,88.858116 65.045227,88.672005 65.809418,88.242348 
	C66.747528,87.996880 67.497726,87.994957 68.622887,87.989845 
	C69.003075,88.465240 69.008286,88.943810 68.896317,90.021011 
	C68.516853,91.094238 68.254562,91.568848 67.992271,92.043457 
	C66.860939,92.610016 65.729607,93.176567 64.299782,93.878525 
	C62.977139,93.967361 61.883183,93.666862 60.942879,93.925339 
	C58.762001,94.524803 56.983593,94.805588 57.005920,91.339088 
	C57.261738,90.498329 57.519974,90.007042 57.889366,89.260849 
z"/>
<path fill="#EDF2D5" opacity="1.000000" stroke="none" 
	d="
M100.701431,36.278828 
	C100.973900,38.370335 100.981583,40.742752 100.977631,43.559521 
	C100.789551,41.522495 100.613091,39.041115 100.701431,36.278828 
z"/>
<path fill="#EDF2D5" opacity="1.000000" stroke="none" 
	d="
M100.714828,51.220375 
	C100.968384,52.065948 100.979576,53.134525 100.979424,54.603783 
	C100.802879,53.817436 100.637672,52.630402 100.714828,51.220375 
z"/>
<path fill="#EDF2D5" opacity="1.000000" stroke="none" 
	d="
M100.761459,46.149166 
	C100.977394,46.440884 100.984543,46.887653 100.980240,47.669369 
	C100.830078,47.437614 100.691376,46.870918 100.761459,46.149166 
z"/>
<path fill="#C7C4AC" opacity="1.000000" stroke="none" 
	d="
M68.360413,92.031876 
	C68.254562,91.568848 68.516853,91.094238 68.902130,90.379768 
	C69.876205,90.272713 70.727295,90.405518 71.578384,90.538315 
	C71.597862,90.803757 71.617332,91.069191 71.636810,91.334633 
	C70.667389,91.563187 69.697968,91.791740 68.360413,92.031876 
z"/>
<path fill="#C7C4AC" opacity="1.000000" stroke="none" 
	d="
M76.632126,88.656326 
	C77.525719,88.359909 78.129883,88.197021 78.614616,88.066330 
	C78.905731,88.320618 79.029007,88.428307 79.152290,88.535995 
	C77.793861,89.121742 76.435432,89.707489 75.077011,90.293236 
	C74.957932,89.991295 74.838860,89.689346 74.719780,89.387398 
	C75.260750,89.188217 75.801727,88.989029 76.632126,88.656326 
z"/>
<path fill="#DEFAD4" opacity="1.000000" stroke="none" 
	d="
M82.955093,83.569130 
	C82.728630,83.196396 82.730888,82.826126 82.759880,82.457947 
	C82.760681,82.447693 83.047607,82.459969 83.201118,82.461746 
	C83.196594,82.831787 83.192070,83.201836 82.955093,83.569130 
z"/>
<path fill="#E6FAE2" opacity="1.000000" stroke="none" 
	d="
M15.000707,40.467621 
	C15.667513,41.624157 16.855240,43.230919 16.913826,44.877850 
	C17.240061,54.048710 17.292570,63.229305 17.719547,73.078232 
	C18.001534,74.499756 18.002674,75.249611 18.003815,75.999474 
	C17.640810,77.558388 17.277807,79.117310 16.914803,80.676231 
	C16.276634,80.620575 15.638465,80.564919 15.000296,80.509262 
	C15.000296,67.318306 15.000296,54.127350 15.000707,40.467621 
z"/>
<path fill="#DFF9D9" opacity="1.000000" stroke="none" 
	d="
M19.000076,82.000000 
	C18.992195,82.781136 18.984314,83.562271 18.644764,84.681221 
	C17.557455,84.720192 16.801813,84.421349 16.046177,84.122498 
	C16.791763,83.420670 17.537348,82.718842 18.641468,82.008499 
	C19.000000,82.000000 19.000076,82.000000 19.000076,82.000000 
z"/>
<path fill="#DFF9D9" opacity="1.000000" stroke="none" 
	d="
M21.620543,78.995880 
	C22.036354,79.310867 22.245871,79.629623 22.727734,80.054657 
	C22.664639,80.620361 22.329193,81.079765 21.993748,81.539177 
	C21.666159,80.912323 21.338570,80.285469 21.006474,79.337975 
	C21.001966,79.017334 21.414248,78.999649 21.620543,78.995880 
z"/>
<path fill="#DFF9D9" opacity="1.000000" stroke="none" 
	d="
M18.261944,75.899323 
	C18.002674,75.249611 18.001534,74.499756 18.001455,73.374947 
	C18.440540,73.000084 18.878563,73.000168 19.644413,73.000641 
	C19.977747,73.446533 19.983257,73.892044 19.979004,74.671860 
	C19.486185,75.270508 19.003130,75.534836 18.261944,75.899323 
z"/>
<path fill="#000000" opacity="1.000000" stroke="none" 
	d="
M16.028212,84.474457 
	C16.801813,84.421349 17.557455,84.720192 18.630085,85.071533 
	C17.968134,85.024826 16.989193,84.925613 16.028212,84.474457 
z"/>
<path fill="#DFF9D9" opacity="1.000000" stroke="none" 
	d="
M18.999962,82.000000 
	C19.083260,81.965370 19.166595,81.930733 19.125004,81.948051 
	C19.000076,82.000000 19.000000,82.000000 18.999962,82.000000 
z"/>
<path fill="#DFF9D9" opacity="1.000000" stroke="none" 
	d="
M26.152191,80.346542 
	C26.323215,80.252594 26.634497,80.346031 27.031376,80.697296 
	C26.800646,80.895927 26.525803,80.755531 26.152191,80.346542 
z"/>
<path fill="#DCDDCA" opacity="1.000000" stroke="none" 
	d="
M52.750916,88.994705 
	C53.308754,89.111702 53.562263,89.300331 53.875191,89.771957 
	C53.913383,90.683594 53.838127,91.384834 53.697601,92.694237 
	C53.023666,91.244209 52.634933,90.407829 52.123116,89.284271 
	C52.166889,88.995964 52.333752,88.994843 52.750916,88.994705 
z"/>
<path fill="#BDB7A9" opacity="1.000000" stroke="none" 
	d="
M44.789162,87.731972 
	C44.483097,87.988426 44.057484,88.005875 43.313675,88.060417 
	C43.016525,87.769661 43.037567,87.441803 43.058609,87.113953 
	C43.595608,87.240295 44.132607,87.366631 44.789162,87.731972 
z"/>
<path fill="#E7FEE3" opacity="1.000000" stroke="none" 
	d="
M20.749954,54.112305 
	C20.867641,54.313473 20.690998,54.572819 20.216061,54.886772 
	C20.110643,54.692413 20.289928,54.435444 20.749954,54.112305 
z"/>
<path fill="#ECF1D8" opacity="1.000000" stroke="none" 
	d="
M112.585587,24.123135 
	C112.991524,36.367657 113.007393,48.704792 113.032745,61.507523 
	C112.594742,61.983654 112.147263,61.994198 111.365158,62.010681 
	C111.020210,50.915157 110.964775,39.813328 111.052834,28.712641 
	C111.064751,27.210751 111.796890,25.714573 112.585587,24.123135 
z"/>
<path fill="#ECF1D8" opacity="1.000000" stroke="none" 
	d="
M111.029846,69.322502 
	C111.534393,69.307877 112.028938,69.631706 112.523476,69.955536 
	C112.219276,70.276291 111.915070,70.597046 111.325073,70.966492 
	C111.032799,70.563782 111.026314,70.112373 111.029846,69.322502 
z"/>
<path fill="#000000" opacity="1.000000" stroke="none" 
	d="
M63.540070,89.025223 
	C63.522751,89.691292 63.152817,90.338356 62.433765,90.971680 
	C62.452251,90.307365 62.819855,89.656792 63.540070,89.025223 
z"/>
<path fill="#E9F0DA" opacity="1.000000" stroke="none" 
	d="
M54.996189,89.998001 
	C55.082058,89.963516 55.171680,89.931023 55.132603,89.952896 
	C55.003902,90.007278 54.999947,90.000000 54.996189,89.998001 
z"/>
</svg>